<?xml version="1.0" encoding="utf-8"?>
<!-- Generator: Adobe Illustrator 17.1.0, SVG Export Plug-In . SVG Version: 6.00 Build 0)  -->
<!DOCTYPE svg PUBLIC "-//W3C//DTD SVG 1.1//EN" "http://www.w3.org/Graphics/SVG/1.1/DTD/svg11.dtd">
<svg version="1.1"
	 id="svg2" xmlns:sodipodi="http://sodipodi.sourceforge.net/DTD/sodipodi-0.dtd" xmlns:dc="http://purl.org/dc/elements/1.1/" xmlns:inkscape="http://www.inkscape.org/namespaces/inkscape" xmlns:rdf="http://www.w3.org/1999/02/22-rdf-syntax-ns#" xmlns:svg="http://www.w3.org/2000/svg" xmlns:cc="http://creativecommons.org/ns#"
	 xmlns="http://www.w3.org/2000/svg" xmlns:xlink="http://www.w3.org/1999/xlink" x="0px" y="0px" viewBox="0 0 26 26"
	 enable-background="new 0 0 26 26" xml:space="preserve">
<script  id="script3301" xlink:href=""></script>
<script  id="script3299" xlink:href=""></script>
<path id="path3538" fill="#6D6D6D" d="M18.7,25.8c-1-0.3-1.9-0.8-3.8-2.3c-2-1.5-5.1-4-7.5-6.9c-2.4-2.9-4.1-6.1-5.1-8
	C1.4,6.6,1.2,5.9,1.2,5c0-0.8,0.1-1.8,0.8-2.7c0.6-0.9,1.7-1.7,2.6-2C5.4-0.1,6,0,6.5,0.2c0.4,0.2,0.7,0.3,1.2,0.8
	c0.4,0.4,1,1.1,1.5,1.7c0.5,0.7,0.9,1.4,1.1,2c0.3,0.6,0.4,1.2,0.5,1.7c0,0.6-0.1,1.3-0.7,1.8C9.6,8.6,8.7,9,8.3,9.2
	c-0.1,0-0.1,0.1-0.2,0.1c0,0.1,0,0.3,0.2,0.8c0.4,1,1.5,2.8,2.8,4.2c1.3,1.5,3,2.6,4,3.3c0.8,0.6,1.2,0.8,1.4,1l0.2,0.1l0.2-0.2
	c0.1-0.1,0.2-0.2,0.4-0.4c0.3-0.4,0.9-1.1,1.8-1.2c0.9-0.2,1.9,0.2,2.7,0.8c0.8,0.6,1.6,1.4,2.2,2.3c0.6,0.9,1,2,0.6,3.1
	c-0.5,1.1-1.7,2-2.7,2.4C20.7,26.1,19.7,26.1,18.7,25.8z"/>
</svg>
